<svg xmlns="http://www.w3.org/2000/svg" viewBox="550 135 305 345">
  <path fill="#24323D" d="m 634.70445,475.78654 c -7.6546,-2.03037 -12.68467,-9.55323 -12.69887,-18.99218 l -0.006,-3.70564 -4.25,1.50359 c -18.6724,6.60606 -28.71164,-2.93093 -17.21898,-16.35752 3.33246,-3.89323 3.33246,-3.89323 3.24234,-14.81401 -0.0619,-7.49947 0.47043,-13.09468 1.69913,-17.85983 l 1.78926,-6.93905 -2.68664,-2.31095 C 603.09746,395.03993 601.27857,394 600.53313,394 598.32769,394 594,388.0767 594,385.05813 c 0,-6.56283 4.30396,-9.23598 19.55845,-12.14758 5.53215,-1.05592 21.93821,-5.29275 36.45792,-9.4152 29.43792,-8.35803 29.1949,-8.31584 31.12814,-5.40422 1.53128,2.30622 3.72728,1.76975 49.35549,-12.0572 74.67038,-22.62773 69.04701,-22.3219 77.91588,-4.23759 l 4.91588,10.02385 -1.66784,6.75853 c -2.01683,8.17277 -1.79063,7.92136 -5.85309,6.50518 -3.61645,-1.2607 -5.81083,0.31348 -5.81083,4.1685 0,1.6389 -0.53541,1.78986 -4.33008,1.22081 -4.2439,-0.63641 -4.3495,-0.5829 -5.30541,2.68873 -0.98241,3.36231 -1.91183,3.73384 -6.85056,2.73837 -1.5903,-0.32054 -2.17636,0.35897 -2.94113,3.41013 -1.00443,4.00732 -0.71423,3.92089 -7.14363,2.1276 -1.73848,-0.48489 -2.26888,0.0835 -3.30509,3.54209 -1.07678,3.59398 -1.51437,4.03038 -3.42919,3.41991 -4.62225,-1.47362 -5.60303,-0.93162 -7.12496,3.93749 -0.48042,1.537 -1.22014,1.72842 -4.52294,1.17041 -3.82894,-0.64689 -3.97526,-0.56622 -4.82896,2.66248 -0.8377,3.1682 -1.08026,3.31444 -5.00443,3.01711 -3.92032,-0.29703 -4.16733,-0.14882 -4.99982,3 -0.90453,3.42126 -2.08486,3.81477 -6.89975,2.30028 -1.91064,-0.60098 -2.27289,-0.22413 -2.87627,2.99215 -0.77184,4.11426 -2.50307,5.25903 -5.75155,3.80316 C 721.69114,409.94081 720,410.72671 720,413.46089 c 0,3.33614 -2.32266,4.97198 -5.01422,3.5315 C 712.08777,415.44142 710,416.42705 710,419.34617 c 0,3.34315 -2.298,5.0999 -4.87034,3.72322 -3.22354,-1.72518 -3.98114,-1.29713 -5.26023,2.97209 -0.92858,3.09931 -1.57903,3.87965 -2.79015,3.3473 -3.9863,-1.75218 -6.40353,-0.96822 -7.28046,2.36122 -0.96846,3.67697 -1.48767,3.82467 -6.33094,1.80103 -3.56489,-1.48951 -5.7188,-10.50324 -2.21788,-9.28146 0.6875,0.23993 2.72816,-0.84757 4.5348,-2.41667 1.80663,-1.56909 4.11738,-2.8529 5.13499,-2.8529 1.0176,0 2.58732,-1.125 3.48825,-2.5 1.07789,-1.64506 2.57061,-2.50524 4.36501,-2.51531 3.30293,-0.0186 4.55989,-0.78655 6.11243,-3.73469 0.87375,-1.65918 2.07683,-2.25 4.58161,-2.25 2.63276,0 3.87717,-0.67473 5.53291,-3 1.52216,-2.13768 2.95936,-3 5,-3 2.04064,0 3.47784,-0.86232 5,-3 1.52216,-2.13768 2.95936,-3 5,-3 2.04064,0 3.47784,-0.86232 5,-3 1.39026,-1.95245 3.00205,-3 4.61584,-3 1.36381,0 3.52227,-1.125 4.79658,-2.5 1.37945,-1.48846 3.41973,-2.5 5.04248,-2.5 1.77674,0 3.64196,-1.04435 5.35801,-3 1.47319,-1.67887 3.63194,-3 4.90206,-3 1.26111,0 3.45735,-1.33304 4.94261,-3 1.76857,-1.98491 3.62204,-3 5.47778,-3 1.95685,0 3.47529,-0.90694 5.02276,-3 1.68182,-2.27479 3.01241,-3 5.50426,-3 2.63999,0 3.59135,-0.58998 4.83762,-3 1.26875,-2.4535 2.17959,-3 5,-3 2.84914,0 3.72883,-0.54182 5.06043,-3.11687 1.44207,-2.78865 1.97129,-3.05853 5.02568,-2.56287 4.23022,0.68647 4.26318,0.13511 0.5221,-8.73228 -3.42279,-8.11296 -5.55952,-10.87638 -7.89588,-10.21169 -0.94178,0.26793 -22.18733,6.55966 -47.21233,13.98161 -25.025,7.42195 -48.74438,14.44134 -52.70974,15.59864 -8.94357,2.61019 -8.77831,2.29872 -6.32258,11.91688 2.99122,11.71546 2.79795,12.9018 -4.23201,25.97615 -10.75364,19.99968 -10.01176,16.79973 -9.19861,39.67679 1.09212,30.72545 -9.97055,39.91576 -38.83261,32.26018 z M 661.53897,464 c 2.69641,-2.5 2.69641,-2.5 2.04904,-13.44634 -0.76436,-12.92465 -0.54609,-12.54519 -5.3199,-9.24893 -5.32342,3.67577 -11.77654,6.33602 -18.90645,7.79404 -6.67647,1.3653 -8.90093,5.72245 -6.34865,12.43544 2.28665,6.01435 22.78733,7.78643 28.52596,2.46579 z m -45.51439,-17.94258 c 3.80322,-1.61841 10.402,-3.42758 14.66395,-4.02036 22.34013,-3.10723 26.13734,-6.30477 39.82329,-33.53435 10.67451,-21.23801 10.31363,-19.57523 7.11633,-32.7893 -2.89835,-11.9785 -1.84168,-11.16122 -10.702,-8.27746 -11.88871,3.86941 -37.61598,10.6909 -47.86391,12.69095 -17.21056,3.35892 -18.93744,4.50767 -11.63324,7.73867 7.40322,3.2748 9.05668,9.18647 6.051,21.63443 -0.80126,3.31839 -1.46008,10.91629 -1.47409,17 -0.0253,11 -0.0253,11 -3.51562,15.39073 -6.20807,7.80966 -3.95485,9.05576 7.53429,4.16669 z m 10.85777,-14.93977 c -4.77129,-4.77129 -4.8949,-6.94576 -1.4632,-25.73855 3.63624,-19.9129 8.57659,-25.29054 22.19641,-24.16107 15.69121,1.30123 16.51298,17.08775 2.33605,44.87681 -4.8492,9.50523 -16.13057,11.96149 -23.06926,5.02281 z M 639.00023,426 C 641.36774,426 652,400.59322 652,394.93582 c 0,-6.80987 -9.60887,-7.93173 -14.76131,-1.72342 -1.19958,1.4454 -5.23869,23.49568 -5.23869,28.599 0,3.21983 2.39259,5.5282 4.83179,4.6617 0.73248,-0.2602 1.70828,-0.4731 2.16844,-0.4731 z m 45.01508,34.25 c 0.0262,-6.41449 -2.0464,-6.09032 41.50453,-6.49161 34.01247,-0.31341 40.85399,-0.62356 45.83432,-2.07782 83.69596,-24.43926 78.99651,-139.74431 -6.28038,-154.09436 C 757.60566,296.3295 747.68665,296 717.32378,296 H 679 v -4.93837 -4.93836 l 40.25,-0.3157 c 50.70662,-0.39771 58.65344,-2.54099 76.83501,-20.72256 C 834.9212,226.24883 813.0185,160.28007 758.21922,151.03698 L 751,149.8193 v -5.03882 -5.03881 l 6.08748,0.68872 c 74.64585,8.44521 94.86883,113.57417 28.16252,146.40255 -5.29602,2.60634 -6.64198,4.16706 -3.59368,4.16706 0.91098,0 6.19848,2.24827 11.75,4.99616 C 864.38558,331.12943 855.84941,435.43352 780,459.80914 768.2408,463.58818 762.6216,464 722.81634,464 H 684 Z M 624.42564,353.67733 c 6.16677,-85.02799 5.68933,-143.32566 -1.30324,-159.13354 -7.43664,-16.81175 -32.72186,-10.54163 -55.90364,13.86276 l -7.27251,7.65606 -4.22313,-1.08067 c -2.32271,-0.59438 -4.75606,-1.258 -5.40743,-1.47472 -2.54498,-0.84675 8.29623,-24.70568 15.93489,-35.0689 20.30536,-27.54791 47.9722,-39.41688 91.91786,-39.43242 l 16.66844,-0.006 2.03215,3.28809 c 6.21433,10.05499 23.4847,10.15687 30.27955,0.17863 l 2.35142,-3.45305 12.69424,-0.007 c 11.84472,-0.006 12.8749,0.14857 15.39392,2.31534 l 2.69969,2.32218 0.10607,23.64395 c 0.13399,29.86587 1.20704,28.06165 -16.97667,28.54449 l -12.53283,0.33278 -4.82419,-4.51246 C 694.7575,181.08073 677.55102,184.75534 671.65819,199 c -4.19396,10.13802 -5.60137,65.38321 -2.81505,110.5 0.64537,10.45 1.45606,23.53683 1.80154,29.08185 l 0.62814,10.08184 -4.66509,1.30615 c -5.88824,1.6486 -5.21728,3.49888 -6.51632,-17.96984 -2.74571,-45.37762 -3.28069,-61.21542 -2.93021,-86.74828 l 0.37403,-27.24829 -3.01762,-0.56093 c -1.65968,-0.30851 -5.89053,-0.42178 -9.40188,-0.25171 l -6.38427,0.30921 0.15661,32 c 0.0907,18.53389 -0.4897,43.36203 -1.37924,59 -0.84471,14.85 -1.82448,32.07903 -2.17728,38.28674 -0.35279,6.20771 -1.00584,11.51196 -1.45121,11.78722 -0.44538,0.27526 -2.88833,1.12602 -5.42878,1.89058 l -4.61899,1.39011 z M 659.5503,204.25 c 5.54918,-25.93491 33.77629,-37.83583 51.58335,-21.74822 3.69357,3.33691 4.21503,3.49822 11.30887,3.49822 h 7.43675 l 0.31036,-3.75 C 730.36034,180.1875 730.275,171.975 730,164 l -0.5,-14.5 -7.35526,0.26217 c -6.7554,0.2408 -7.6824,0.5422 -11.36659,3.69573 -10.5441,9.02536 -26.89932,8.81227 -37.93631,-0.49425 L 668.14119,149 h -11.39653 c -37.39106,0 -63.90785,11.14879 -81.18628,34.13418 -6.11522,8.13504 -5.75017,8.81732 1.82531,3.41156 29.65548,-21.16171 52.25328,-14.3888 59.07028,17.70426 C 637.0381,207 637.0381,207 648,207 c 10.9619,0 10.9619,0 11.5503,-2.75 z"/>
</svg>
